<svg width="222" height="17" xmlns="http://www.w3.org/2000/svg"><path d="M9.867.902L15 17h-3.738l-1.083-3.581H4.446L3.363 17H0L5.2.902h4.667zm69.711 4.044v7.156c0 1.601.668 2.368 2.098 2.368 1.406 0 2.512-.857 2.512-2.594v-6.93h3.319V16.75h-3.32v-1.852c-.62 1.2-1.843 2.101-3.826 2.101-2.351 0-4.102-1.354-4.102-4.447V4.946h3.32zm24.14-.268c3.112 0 5.878 1.783 5.878 6.002v.902h-8.69c.093 1.965 1.176 3.092 2.997 3.092 1.544 0 2.304-.654 2.512-1.648h3.158c-.392 2.552-2.466 3.972-5.762 3.972-3.642 0-6.293-2.233-6.293-6.002v-.181c0-3.723 2.696-6.137 6.2-6.137zm-56.158 0c3.111 0 5.878 1.783 5.878 6.002v.902h-8.69c.093 1.965 1.176 3.092 2.997 3.092 1.543 0 2.304-.654 2.511-1.648h3.16c-.393 2.552-2.467 3.972-5.764 3.972-3.641 0-6.292-2.233-6.292-6.002v-.181c0-3.723 2.696-6.137 6.2-6.137zm-25.434 0c2.789 0 5.372 1.195 5.67 4.58H24.64c-.23-1.377-1.084-2.009-2.444-2.009-1.728 0-2.881 1.264-2.881 3.522v.179c0 2.37 1.083 3.59 2.95 3.59 1.337 0 2.42-.77 2.582-2.28h3.02c-.186 2.8-2.26 4.738-5.764 4.738-3.526 0-6.2-2.143-6.2-6.002v-.181c0-3.813 2.789-6.137 6.223-6.137zm12.728 0c2.79 0 5.372 1.195 5.67 4.58h-3.156c-.23-1.377-1.083-2.009-2.444-2.009-1.728 0-2.881 1.264-2.881 3.522v.179c0 2.37 1.083 3.59 2.951 3.59 1.336 0 2.419-.77 2.581-2.28h3.02c-.186 2.8-2.26 4.738-5.763 4.738-3.527 0-6.2-2.143-6.2-6.002v-.181c0-3.813 2.788-6.137 6.222-6.137zm37.543-2.282V4.95h2.536v2.324h-2.536v5.686c0 .946.485 1.399 1.338 1.399.505 0 .875-.067 1.268-.226v2.528a6.22 6.22 0 01-2.029.317c-2.536 0-3.896-1.263-3.896-3.724v-5.98h-1.543V4.95h1.543V2.396h3.319zm94.908 2.343c2.305 0 4.404.926 4.404 4.222v7.785h-1.912v-1.49c-.9 1.11-1.985 1.695-3.758 1.695-2.236 0-4.01-1.062-4.01-3.477 0-2.73 2.951-3.656 6.038-3.656h1.73V8.96c0-1.874-.737-2.664-2.583-2.664-1.658 0-2.581.678-2.764 2.122h-1.913c.252-2.686 2.443-3.68 4.768-3.68zm49.278 0c2.786 0 5.417 1.648 5.417 5.87v.607h-9.082c.093 2.686 1.404 4.175 3.872 4.175 1.868 0 2.951-.676 3.204-2.052h1.914c-.416 2.368-2.421 3.612-5.14 3.612-3.412 0-5.833-2.347-5.833-5.983v-.18c0-3.566 2.329-6.05 5.648-6.05zm-36.64 0c2.51 0 4.862 1.129 5.231 4.13h-1.89c-.3-1.873-1.683-2.573-3.342-2.573-2.193 0-3.872 1.717-3.872 4.491v.181c0 2.892 1.613 4.423 3.942 4.423 1.706 0 3.25-.97 3.455-2.887h1.777c-.254 2.55-2.35 4.447-5.257 4.447-3.366 0-5.9-2.326-5.9-5.983v-.18c0-3.61 2.626-6.05 5.855-6.05zm-32.858 0c2.789 0 5.42 1.648 5.42 5.87v.607h-9.084c.092 2.686 1.405 4.175 3.874 4.175 1.866 0 2.947-.676 3.202-2.052h1.915c-.415 2.368-2.423 3.612-5.142 3.612-3.41 0-5.83-2.347-5.83-5.983v-.18c0-3.566 2.328-6.05 5.645-6.05zm42.928-2.483v2.687h2.814v1.58h-2.814v7.086c0 1.15.528 1.717 1.498 1.717.6 0 1.06-.09 1.476-.25v1.58c-.393.137-.853.25-1.636.25-2.19 0-3.251-1.264-3.251-3.116V6.522h-1.729v-1.58h1.729V2.257h1.913zm-52.665 0v2.687h2.811v1.58h-2.811v7.086c0 1.15.53 1.717 1.498 1.717.598 0 1.06-.09 1.476-.25v1.58c-.39.137-.853.25-1.638.25-2.189 0-3.25-1.264-3.25-3.116V6.522h-1.728v-1.58h1.729V2.257h1.913zm-75.033 2.42c2.374 0 4.057 1.4 4.057 4.56v7.515H63.03v-7.04c0-1.604-.645-2.37-2.12-2.37-1.431 0-2.514.856-2.514 2.595v6.815h-3.342V4.948h3.342V6.82c.6-1.173 1.913-2.145 3.92-2.145zm34.653.09v3.047c-2.466-.022-3.897.769-3.897 3.024v5.914H89.73V4.948h3.341v2.257c.763-1.581 1.938-2.416 3.897-2.439zm63.939-.026V6.5c-2.417.113-3.963.857-3.963 3.769v6.477h-1.915V4.943h1.915v2.12c.76-1.331 1.798-2.255 3.963-2.323zM118.385.61v16.136h-2.008V.611h2.008zm9.384 4.13c2.489 0 4.242 1.332 4.242 4.762v7.244h-1.913v-7.38c0-2.077-.898-3-2.834-3-1.776 0-3.367 1.104-3.367 3.225v7.155h-1.913V4.943h1.913v1.873c.553-1.107 1.893-2.076 3.872-2.076zm69.285.202v11.803h-1.914V4.942h1.914zm4.039.002l3.572 9.908 3.526-9.908h1.984l-4.335 11.801h-2.443l-4.38-11.801h2.076zm-31.296 6.206h-1.66c-2.419 0-4.195.588-4.195 2.324 0 1.22.598 1.986 2.282 1.986 2.028 0 3.573-1.016 3.573-2.843V11.15zM7.322 3.873l-2.1 6.958h4.18l-2.08-6.958zm139.763 2.423c-1.956 0-3.274 1.31-3.596 3.409h7.055c-.183-2.437-1.476-3.409-3.459-3.409zm69.498 0c-1.959 0-3.274 1.31-3.597 3.409h7.053c-.183-2.437-1.473-3.409-3.456-3.409zm-112.865.637c-1.498 0-2.511.97-2.766 2.64h5.395c-.115-1.782-1.038-2.64-2.629-2.64zm-56.158 0c-1.498 0-2.511.97-2.766 2.64h5.394c-.115-1.782-1.037-2.64-2.628-2.64zM196.06 0c.69 0 1.268.563 1.268 1.242 0 .676-.577 1.241-1.268 1.241-.693 0-1.266-.565-1.266-1.241 0-.679.573-1.242 1.266-1.242z" fill="#FFF" fill-rule="evenodd"/></svg>