<svg width="114" height="45" xmlns="http://www.w3.org/2000/svg"><path d="M2.615 33.755c.443 0 .832-.066 1.165-.197.332-.131.608-.314.827-.548.22-.235.383-.514.49-.84.109-.326.163-.683.163-1.07v-.07c0-.377-.053-.725-.158-1.045a2.202 2.202 0 00-.481-.827 2.232 2.232 0 00-.824-.544c-.332-.131-.73-.197-1.191-.197H1.51v5.338h1.104zM1.02 28.023H2.65c.514 0 .966.077 1.357.231.392.154.717.365.977.634s.456.586.587.951c.131.366.196.763.196 1.191v.077c0 .423-.062.82-.188 1.191a2.594 2.594 0 01-.578.969c-.26.274-.587.49-.98.647-.395.157-.857.235-1.388.235H1.02v-6.126zm9.24 3.556c-.024-.545-.171-.946-.443-1.202s-.632-.383-1.082-.383c-.221 0-.426.037-.613.11a1.474 1.474 0 00-.827.814 2.174 2.174 0 00-.162.66h3.126zm-1.455 2.64c-.332 0-.632-.056-.897-.164a1.934 1.934 0 01-.683-.463 2.07 2.07 0 01-.438-.715 2.65 2.65 0 01-.153-.921v-.07c0-.336.052-.644.157-.924.106-.28.25-.522.434-.724.184-.203.404-.36.661-.472.257-.11.54-.166.85-.166.274 0 .534.043.779.132.245.089.458.223.64.403.18.18.323.407.429.681.104.274.157.597.157.968v.163H7.116c.012.603.16 1.066.443 1.39.283.324.699.487 1.247.487.386 0 .701-.077.947-.232.245-.154.408-.388.49-.703h.464c-.1.432-.317.76-.652.988-.337.227-.752.341-1.249.341zm4.476.007c-.543 0-.966-.129-1.266-.387-.3-.26-.465-.604-.495-1.035h.447c.04.308.163.557.368.745.204.189.52.283.946.283.385 0 .675-.078.871-.235.196-.158.294-.373.294-.648a.873.873 0 00-.066-.359.619.619 0 00-.21-.25 1.29 1.29 0 00-.373-.17 5.537 5.537 0 00-.552-.129c-.28-.05-.52-.108-.718-.17a1.62 1.62 0 01-.49-.24.86.86 0 01-.28-.345 1.217 1.217 0 01-.088-.491c0-.188.043-.356.127-.504.085-.148.197-.273.337-.376.14-.102.3-.18.482-.234a1.94 1.94 0 01.56-.082c.205 0 .398.022.579.064.18.043.34.113.48.21.142.098.258.223.351.377.094.155.155.343.185.566h-.447c-.059-.288-.183-.498-.372-.628-.19-.13-.452-.195-.784-.195-.321 0-.58.073-.775.218a.682.682 0 00-.294.575c0 .131.022.24.066.328a.605.605 0 00.21.23c.097.066.225.123.386.17.16.05.357.094.59.134.246.045.464.095.653.15.19.054.35.128.482.222a.93.93 0 01.302.36c.07.145.105.327.105.544 0 .377-.137.688-.412.933-.274.246-.674.37-1.2.37zm2.75-.077v-4.48h.464v4.48h-.465zm.227-5.44a.325.325 0 01-.333-.327c0-.085.032-.159.097-.222a.323.323 0 01.236-.094.31.31 0 01.233.094.31.31 0 01.091.222.32.32 0 01-.091.232.313.313 0 01-.233.094zm3.494 4.9a1.8 1.8 0 00.657-.119c.204-.08.384-.196.539-.35.154-.153.277-.34.368-.558.09-.219.135-.468.135-.747v-.067c0-.279-.04-.53-.122-.751a1.602 1.602 0 00-.338-.559 1.43 1.43 0 00-.516-.345 1.786 1.786 0 00-.661-.12c-.246 0-.472.042-.679.124-.208.083-.385.2-.534.354a1.644 1.644 0 00-.35.563 2.09 2.09 0 00-.128.75v.069c0 .278.043.525.127.741.085.217.2.4.347.55.145.151.317.267.516.346.198.08.412.12.64.12zm.035 2.151c-.332 0-.62-.037-.862-.111a2.024 2.024 0 01-.613-.296 1.401 1.401 0 01-.39-.428 1.509 1.509 0 01-.184-.519h.473c.064.289.222.521.473.697.25.175.616.263 1.095.263.245 0 .47-.029.674-.085.204-.058.38-.147.525-.27a1.23 1.23 0 00.342-.477c.082-.197.123-.432.123-.705v-.914c-.065.138-.15.27-.259.399a2.021 2.021 0 01-.884.595 1.825 1.825 0 01-.591.094c-.293 0-.564-.05-.815-.15-.251-.1-.47-.244-.657-.432a2.016 2.016 0 01-.438-.677 2.367 2.367 0 01-.157-.882v-.06c0-.32.053-.615.162-.883.108-.269.257-.501.446-.698.19-.198.415-.35.675-.459a2.17 2.17 0 01.845-.163c.227 0 .43.029.609.086.177.057.334.133.468.227.134.095.25.204.35.33.1.126.181.257.246.394v-.968h.463v4.182c0 .33-.053.616-.16.856a1.65 1.65 0 01-.444.595c-.187.158-.41.273-.67.348-.26.074-.54.111-.845.111zm3.591-6.092h.464v.874c.053-.12.129-.237.228-.351a1.66 1.66 0 01.354-.305c.138-.088.294-.158.47-.21.174-.05.364-.076.568-.076.246 0 .468.033.666.098.199.066.37.171.512.317.143.146.254.331.333.557.08.226.118.498.118.818v2.759h-.464v-2.784c0-.48-.11-.829-.328-1.046-.22-.217-.533-.325-.942-.325-.192 0-.38.031-.56.094a1.38 1.38 0 00-.823.724c-.088.18-.132.387-.132.621v2.716h-.464v-4.48zm8.591 4.181c.21 0 .407-.028.591-.085a1.58 1.58 0 00.482-.24c.137-.101.245-.222.324-.362a.912.912 0 00.118-.456v-.759h-.937c-.24 0-.463.015-.67.043-.207.028-.386.08-.538.154a.882.882 0 00-.36.306.871.871 0 00-.13.495c0 .29.091.514.275.67.184.156.465.234.845.234zm-.035.369a2.29 2.29 0 01-.626-.081 1.449 1.449 0 01-.49-.24 1.072 1.072 0 01-.32-.397 1.273 1.273 0 01-.114-.555c0-.256.059-.471.176-.645.116-.173.274-.313.472-.418.198-.105.428-.18.687-.222.26-.043.53-.064.81-.064h.955v-.403c0-.422-.092-.728-.276-.917-.184-.188-.477-.282-.88-.282-.35 0-.64.075-.867.227-.228.151-.368.392-.42.724h-.455a1.36 1.36 0 01.595-1.027c.158-.109.337-.189.538-.24.202-.053.41-.079.627-.079.24 0 .457.029.652.086.196.057.364.15.504.279.14.128.25.292.328.492.08.2.118.443.118.729v2.964h-.464v-.683a1.736 1.736 0 01-.595.538c-.251.143-.57.214-.955.214zm3.45-4.55h.465v.874c.052-.12.129-.237.228-.351a1.66 1.66 0 01.354-.305 1.82 1.82 0 01.469-.21c.175-.05.365-.076.57-.076.244 0 .466.033.665.098.198.066.369.171.512.317.143.146.254.331.333.557.079.226.118.498.118.818v2.759h-.464v-2.784c0-.48-.11-.829-.329-1.046-.218-.217-.532-.325-.941-.325-.193 0-.38.031-.56.094a1.387 1.387 0 00-.824.724c-.087.18-.131.387-.131.621v2.716h-.464v-4.48zm6.902 4.155c.233 0 .454-.04.661-.123.207-.082.388-.202.543-.358.155-.157.277-.353.368-.589.09-.236.136-.507.136-.814v-.069c0-.307-.041-.577-.123-.81a1.723 1.723 0 00-.337-.589 1.36 1.36 0 00-.517-.358 1.788 1.788 0 00-.66-.12c-.247 0-.473.043-.68.129a1.477 1.477 0 00-.534.37c-.15.163-.266.36-.35.594-.085.233-.127.5-.127.801v.068c0 .308.042.576.127.807.084.23.198.424.34.584.145.16.315.279.514.358.198.08.41.12.639.12zm-.044.395c-.292 0-.564-.05-.814-.15a1.83 1.83 0 01-.653-.437 2.047 2.047 0 01-.433-.707 2.697 2.697 0 01-.158-.951v-.069c0-.342.054-.657.162-.942.108-.285.257-.529.447-.728.19-.2.414-.356.674-.468.26-.11.541-.167.845-.167.228 0 .43.029.609.086.178.057.334.136.468.235.135.101.252.215.35.344.1.128.181.26.246.398v-3.136h.464v6.623h-.464v-1.037a1.911 1.911 0 01-.644.754 2.118 2.118 0 01-.499.253 1.79 1.79 0 01-.6.099zm6.008-.069v-6.126h.49v6.126h-.49zm2.093-4.48h.464v.873c.052-.12.128-.237.228-.351a1.66 1.66 0 01.354-.305c.138-.088.293-.158.469-.21.175-.05.365-.076.569-.076.245 0 .467.033.666.098.198.066.369.171.512.317.143.146.254.331.333.557.079.226.118.498.118.818v2.759h-.464v-2.784c0-.48-.11-.829-.329-1.046-.219-.217-.533-.325-.941-.325a1.7 1.7 0 00-.56.094 1.38 1.38 0 00-.823.724c-.088.18-.132.387-.132.621v2.716h-.464v-4.48zm5.14 0h.465v.873c.052-.12.128-.237.228-.351a1.66 1.66 0 01.354-.305 1.82 1.82 0 01.469-.21c.175-.05.364-.076.569-.076.245 0 .467.033.665.098.199.066.37.171.513.317.143.146.253.331.333.557.079.226.118.498.118.818v2.759h-.464v-2.784c0-.48-.11-.829-.329-1.046-.219-.217-.533-.325-.942-.325-.192 0-.38.031-.56.094a1.38 1.38 0 00-.824.724c-.086.18-.13.387-.13.621v2.716h-.465v-4.48zm7.015 4.154c.246 0 .474-.043.683-.132.21-.088.393-.213.548-.375a1.72 1.72 0 00.363-.589c.088-.23.132-.49.132-.78v-.068c0-.296-.044-.56-.132-.793a1.72 1.72 0 00-.363-.593 1.555 1.555 0 00-.548-.371 1.796 1.796 0 00-.683-.129c-.245 0-.473.045-.682.133a1.67 1.67 0 00-.553.375c-.157.162-.28.36-.367.593a2.218 2.218 0 00-.132.785v.068c0 .284.044.543.132.776.087.233.208.431.363.593.155.162.337.287.548.375.21.089.44.132.691.132zm-.008.395c-.31 0-.6-.056-.867-.168a2.084 2.084 0 01-.701-.47 2.225 2.225 0 01-.469-.72 2.384 2.384 0 01-.17-.913v-.069c0-.336.058-.645.175-.925a2.132 2.132 0 011.173-1.187c.269-.11.558-.167.867-.167.31 0 .599.055.868.163.268.109.501.263.7.463.198.2.355.438.469.715.114.278.17.587.17.93v.069c0 .336-.056.645-.17.925a2.133 2.133 0 01-1.178 1.186 2.23 2.23 0 01-.867.168zm2.714-4.55h.508l1.56 4.027 1.55-4.027h.472L67.57 34.15h-.604l-1.761-4.48zm6.235 4.181c.21 0 .408-.028.591-.085.185-.057.345-.137.482-.24.137-.101.245-.222.324-.362a.907.907 0 00.118-.456v-.759h-.936c-.24 0-.463.015-.67.043a1.78 1.78 0 00-.54.154.886.886 0 00-.358.306.871.871 0 00-.132.495c0 .29.092.514.276.67.184.156.466.234.845.234zm-.035.369c-.227 0-.436-.027-.626-.081a1.449 1.449 0 01-.49-.24 1.077 1.077 0 01-.32-.397 1.28 1.28 0 01-.114-.555c0-.256.059-.471.175-.645.117-.173.275-.313.473-.418a2.23 2.23 0 01.687-.222c.26-.043.53-.064.81-.064h.955v-.403c0-.422-.092-.728-.276-.917-.184-.188-.476-.282-.88-.282-.35 0-.639.075-.867.227-.227.151-.367.392-.42.724h-.455a1.36 1.36 0 01.596-1.027c.157-.109.336-.189.537-.24.202-.053.41-.079.627-.079.24 0 .457.029.652.086.196.057.364.15.504.279.14.128.25.292.328.492.08.2.119.443.119.729v2.964h-.465v-.683a1.731 1.731 0 01-.595.538c-.251.143-.57.214-.955.214zm4.747-.009c-.368 0-.646-.1-.836-.299-.19-.2-.285-.479-.285-.838v-3.01h-.675v-.394h.675v-1.02h.464v1.02h1.2v.394h-1.2v2.969c0 .272.062.471.184.597.122.125.289.187.499.187.117 0 .222-.009.316-.026.093-.017.18-.04.262-.069v.393a1.55 1.55 0 01-.604.096zm1.716-.06v-4.48h.465v4.48h-.465zm.228-5.44a.326.326 0 01-.333-.327.3.3 0 01.097-.222.324.324 0 01.236-.094.31.31 0 01.233.094.31.31 0 01.091.222.32.32 0 01-.091.232.313.313 0 01-.233.094zm3.6 5.114c.245 0 .473-.043.682-.132.21-.088.393-.213.548-.375a1.72 1.72 0 00.363-.589c.088-.23.132-.49.132-.78v-.068c0-.296-.044-.56-.132-.793a1.72 1.72 0 00-.363-.593 1.555 1.555 0 00-.548-.371 1.796 1.796 0 00-.683-.129c-.245 0-.473.045-.682.133-.21.088-.395.213-.552.375-.158.162-.28.36-.368.593a2.218 2.218 0 00-.132.785v.068c0 .284.044.543.132.776.087.233.208.431.363.593.155.162.337.287.548.375.21.089.44.132.691.132zm-.01.395c-.309 0-.598-.056-.866-.168a2.077 2.077 0 01-.7-.47 2.209 2.209 0 01-.47-.72 2.374 2.374 0 01-.17-.913v-.069c0-.336.058-.645.175-.925a2.132 2.132 0 011.173-1.187 2.25 2.25 0 01.867-.167c.31 0 .599.055.868.163a2.08 2.08 0 011.169 1.178c.114.278.17.587.17.93v.069c0 .336-.056.645-.17.925a2.133 2.133 0 01-1.178 1.186 2.23 2.23 0 01-.867.168zm3.346-4.55h.464v.874c.052-.12.129-.237.228-.351.1-.115.217-.216.355-.305.137-.088.293-.158.468-.21.175-.05.365-.076.57-.076.245 0 .466.033.665.098.199.066.369.171.512.317.143.146.254.331.333.557.079.226.118.498.118.818v2.759h-.464v-2.784c0-.48-.11-.829-.329-1.046-.218-.217-.532-.325-.94-.325-.193 0-.38.031-.561.094a1.38 1.38 0 00-.823.724c-.088.18-.132.387-.132.621v2.716h-.464v-4.48zm7.54.394h-.692v-.394h.692v-.805c0-.469.12-.813.359-1.033.24-.22.552-.33.937-.33a1.322 1.322 0 01.508.079v.392a1.31 1.31 0 00-.219-.055 1.588 1.588 0 00-.271-.021c-.257 0-.463.073-.618.221-.154.148-.232.384-.232.708v.844h1.279v.394h-1.279v4.087h-.464v-4.087zm2.75-.394h.464v.943c.128-.275.314-.507.556-.699.242-.192.574-.292.994-.304v.428a2.642 2.642 0 00-.617.103c-.19.057-.354.15-.49.279a1.327 1.327 0 00-.324.497 2.07 2.07 0 00-.119.75v2.484h-.464v-4.48zm4.782 4.155c.245 0 .473-.043.683-.132.21-.088.392-.213.547-.375a1.72 1.72 0 00.364-.589c.087-.23.131-.49.131-.78v-.068c0-.296-.044-.56-.131-.793a1.72 1.72 0 00-.364-.593 1.555 1.555 0 00-.547-.371 1.796 1.796 0 00-.683-.129c-.245 0-.473.045-.683.133a1.67 1.67 0 00-.552.375c-.157.162-.28.36-.368.593a2.218 2.218 0 00-.131.785v.068c0 .284.044.543.131.776.088.233.209.431.364.593.155.162.337.287.547.375.21.089.44.132.692.132zm-.009.395c-.31 0-.599-.056-.867-.168a2.084 2.084 0 01-.7-.47 2.225 2.225 0 01-.47-.72 2.384 2.384 0 01-.17-.913v-.069c0-.336.058-.645.175-.925a2.132 2.132 0 011.173-1.187c.27-.11.558-.167.868-.167.31 0 .598.055.867.163a2.08 2.08 0 011.17 1.178c.113.278.17.587.17.93v.069c0 .336-.057.645-.17.925a2.133 2.133 0 01-1.179 1.186 2.23 2.23 0 01-.867.168zm3.345-4.55h.465v.848c.052-.12.125-.235.218-.347a1.595 1.595 0 01.758-.497c.16-.048.334-.072.521-.072.344 0 .64.076.884.23.246.155.418.412.517.772a1.62 1.62 0 01.661-.741 1.87 1.87 0 01.969-.261c.221 0 .426.03.613.094.186.063.348.162.486.3.137.137.243.317.32.54.075.222.113.493.113.813v2.802h-.464v-2.827c0-.48-.1-.821-.298-1.024-.199-.203-.481-.304-.85-.304-.175 0-.347.03-.516.09a1.345 1.345 0 00-.78.715 1.46 1.46 0 00-.122.617v2.733h-.464v-2.827c0-.48-.1-.821-.298-1.024-.199-.203-.482-.304-.85-.304-.175 0-.347.03-.517.09a1.335 1.335 0 00-.779.715 1.452 1.452 0 00-.122.617v2.733h-.465v-4.48zM1.792 42.17h2.54l-1.27-3.47-1.27 3.47zm.963-3.864h.648l2.251 6.126h-.49l-.693-1.868h-2.82L.97 44.431H.504l2.251-6.126zM8.413 44.5c-.31 0-.598-.054-.863-.163a2.068 2.068 0 01-1.16-1.17 2.47 2.47 0 01-.167-.93v-.068c0-.343.057-.654.17-.934.115-.28.27-.521.47-.724a2.05 2.05 0 01.696-.467c.265-.109.55-.163.854-.163.233 0 .458.03.673.09.217.06.41.151.583.275.172.122.317.278.434.466.116.19.19.409.218.66h-.455a1.282 1.282 0 00-.175-.489 1.15 1.15 0 00-.324-.34 1.455 1.455 0 00-.438-.2 1.925 1.925 0 00-.516-.067c-.24 0-.463.043-.67.132a1.612 1.612 0 00-.543.375 1.72 1.72 0 00-.364.593 2.24 2.24 0 00-.131.793v.069c0 .295.044.558.131.788.087.23.207.426.36.585.15.159.332.282.542.366.21.086.435.128.675.128.192 0 .373-.026.542-.08.17-.054.323-.132.46-.234.137-.103.251-.23.342-.383.09-.153.15-.33.18-.528h.428a1.794 1.794 0 01-.63 1.17c-.17.14-.367.25-.591.33-.225.08-.469.12-.731.12zm4.904 0c-.31 0-.597-.054-.863-.163a2.076 2.076 0 01-1.16-1.17 2.47 2.47 0 01-.166-.93v-.068c0-.343.057-.654.17-.934.114-.28.27-.521.469-.724.198-.203.43-.358.696-.467.266-.109.55-.163.854-.163.233 0 .458.03.674.09.216.06.41.151.583.275.171.122.317.278.433.466.117.19.19.409.219.66h-.455a1.282 1.282 0 00-.175-.489 1.15 1.15 0 00-.324-.34 1.455 1.455 0 00-.438-.2 1.923 1.923 0 00-.517-.067c-.24 0-.463.043-.67.132a1.612 1.612 0 00-.543.375 1.72 1.72 0 00-.363.593 2.24 2.24 0 00-.132.793v.069c0 .295.044.558.132.788.087.23.206.426.359.585.151.159.333.282.542.366.21.086.435.128.675.128.192 0 .373-.026.543-.08.17-.054.322-.132.46-.234a1.3 1.3 0 00.341-.383c.09-.153.15-.33.18-.528h.43a1.804 1.804 0 01-.631 1.17c-.17.14-.367.25-.592.33-.224.08-.468.12-.731.12zm6.34-2.64c-.023-.545-.17-.945-.442-1.201-.272-.256-.632-.383-1.082-.383-.221 0-.426.036-.613.11a1.474 1.474 0 00-.827.814 2.189 2.189 0 00-.162.66h3.126zm-1.454 2.64c-.332 0-.632-.055-.897-.163a1.94 1.94 0 01-.683-.463 2.06 2.06 0 01-.438-.715 2.64 2.64 0 01-.153-.921v-.07c0-.336.052-.644.157-.924.106-.28.25-.522.434-.724.184-.203.404-.36.661-.472a2.12 2.12 0 01.85-.167c.274 0 .534.044.779.133.245.089.458.223.64.403.18.18.323.407.429.681.104.274.157.597.157.968v.163h-3.626c.012.603.16 1.066.443 1.39.283.324.699.486 1.247.486.386 0 .701-.076.947-.23.245-.155.408-.39.49-.704h.464c-.1.431-.317.76-.652.988-.337.227-.752.341-1.249.341zm3.057-4.55h.464v.874c.052-.12.129-.237.228-.351a1.66 1.66 0 01.354-.305c.138-.088.294-.158.469-.21.175-.05.365-.077.57-.077.244 0 .466.034.665.1.198.064.369.17.512.316.143.146.254.331.333.557.079.226.118.498.118.818v2.759h-.464v-2.784c0-.48-.11-.829-.329-1.046-.218-.217-.532-.325-.941-.325-.193 0-.38.031-.56.094a1.387 1.387 0 00-.824.724c-.087.18-.131.387-.131.62v2.717h-.464V39.95zm6.437 4.541c-.368 0-.647-.1-.837-.3-.19-.198-.284-.478-.284-.837v-3.01h-.675v-.394h.675v-1.02h.464v1.02h1.2v.394h-1.2v2.968c0 .273.061.472.184.598.122.124.289.187.499.187a1.743 1.743 0 00.578-.095v.393a1.55 1.55 0 01-.604.096zm3.266.009c-.24 0-.456-.032-.652-.095a1.292 1.292 0 01-.508-.3 1.365 1.365 0 01-.333-.53 2.324 2.324 0 01-.118-.79V39.95h.464v2.81c0 .48.108.824.324 1.033.216.208.526.312.928.312.187 0 .37-.03.548-.09a1.38 1.38 0 00.82-.72c.086-.18.13-.386.13-.62V39.95h.464v4.48h-.464v-.856c-.053.12-.128.236-.228.347a1.69 1.69 0 01-.814.501 1.966 1.966 0 01-.56.078zm3.539-4.55h.464v.942c.128-.274.313-.507.556-.698.242-.192.574-.293.994-.304v.428a2.642 2.642 0 00-.618.103c-.19.057-.353.15-.49.279a1.323 1.323 0 00-.324.497c-.079.202-.118.452-.118.75v2.484h-.464V39.95zm6.191 1.91c-.023-.545-.17-.945-.442-1.201-.271-.256-.632-.383-1.082-.383a1.65 1.65 0 00-.612.11 1.474 1.474 0 00-.828.814 2.174 2.174 0 00-.162.66h3.126zM39.24 44.5c-.333 0-.633-.055-.898-.163a1.94 1.94 0 01-.683-.463c-.19-.2-.336-.438-.438-.715a2.652 2.652 0 01-.153-.921v-.07c0-.336.052-.644.157-.924.106-.28.25-.522.434-.724.184-.203.404-.36.661-.472.257-.11.54-.167.85-.167.274 0 .534.044.779.133.245.089.458.223.64.403.18.18.324.407.428.681.105.274.158.597.158.968v.163H37.55c.012.603.16 1.066.443 1.39.283.324.699.486 1.248.486.385 0 .7-.076.946-.23.245-.155.408-.39.49-.704h.464c-.1.431-.317.76-.652.988-.337.227-.752.341-1.248.341zm5.385-.07v-6.125h.49v6.126h-.49zm2.093-4.48h.464v.874c.053-.12.129-.237.228-.351a1.66 1.66 0 01.355-.305c.137-.088.293-.158.468-.21.175-.05.365-.077.57-.077.244 0 .467.034.665.1.198.064.37.17.512.316.143.146.254.331.333.557.08.226.118.498.118.818v2.759h-.464v-2.784c0-.48-.11-.829-.328-1.046-.22-.217-.533-.325-.942-.325-.192 0-.38.031-.56.094a1.387 1.387 0 00-.824.724c-.087.18-.13.387-.13.62v2.717h-.465V39.95zm6.437 4.541c-.368 0-.646-.1-.836-.3-.19-.198-.285-.478-.285-.837v-3.01h-.675v-.394h.675v-1.02h.464v1.02h1.2v.394h-1.2v2.968c0 .273.062.472.184.598.123.124.289.187.5.187a1.743 1.743 0 00.577-.095v.393a1.55 1.55 0 01-.604.096zm4.94-2.63c-.023-.546-.171-.946-.442-1.202-.272-.256-.632-.383-1.082-.383a1.65 1.65 0 00-.613.11 1.474 1.474 0 00-.828.814 2.174 2.174 0 00-.162.66h3.127zM56.64 44.5c-.333 0-.632-.055-.898-.163a1.94 1.94 0 01-.683-.463c-.19-.2-.336-.438-.438-.715a2.652 2.652 0 01-.153-.921v-.07c0-.336.053-.644.158-.924.105-.28.25-.522.433-.724.184-.203.404-.36.662-.472.256-.11.54-.167.849-.167.274 0 .534.044.78.133.244.089.457.223.639.403.18.18.324.407.429.681.105.274.158.597.158.968v.163H54.95c.011.603.16 1.066.442 1.39.283.324.699.486 1.248.486.385 0 .7-.076.946-.23.245-.155.408-.39.49-.704h.464c-.099.431-.316.76-.652.988-.336.227-.752.341-1.248.341zm3.056-4.55h.464v.942c.129-.274.314-.507.556-.698.242-.192.574-.293.995-.304v.428a2.642 2.642 0 00-.618.103c-.19.057-.353.15-.49.279a1.318 1.318 0 00-.324.497c-.08.202-.119.452-.119.75v2.484h-.464V39.95zm4.248 4.181c.21 0 .407-.028.59-.085.185-.057.345-.136.483-.239a1.17 1.17 0 00.324-.363.91.91 0 00.118-.456v-.759h-.937c-.24 0-.463.014-.67.042-.207.029-.387.08-.539.154a.89.89 0 00-.359.307.872.872 0 00-.131.495c0 .29.092.514.276.67.184.156.465.234.845.234zm-.035.369c-.228 0-.437-.028-.626-.081a1.457 1.457 0 01-.49-.24 1.074 1.074 0 01-.32-.397 1.273 1.273 0 01-.115-.555c0-.256.06-.471.176-.645a1.28 1.28 0 01.473-.418c.198-.106.427-.18.687-.222.26-.043.53-.064.81-.064h.955v-.403c0-.423-.092-.729-.276-.917-.184-.188-.477-.282-.88-.282-.35 0-.64.075-.867.226-.228.152-.368.393-.42.725h-.456c.023-.236.089-.44.197-.608.108-.17.24-.31.399-.419.157-.109.337-.19.538-.241a2.531 2.531 0 011.279.008c.195.057.363.15.503.278.14.129.25.293.329.493.079.2.118.443.118.729v2.964h-.464v-.683a1.737 1.737 0 01-.596.538c-.251.142-.569.214-.954.214zm5.298 0c-.31 0-.597-.054-.862-.163a2.068 2.068 0 01-1.16-1.17 2.47 2.47 0 01-.167-.93v-.068c0-.343.057-.654.17-.934.114-.28.27-.521.47-.724.198-.203.43-.358.695-.467.266-.109.55-.163.854-.163.234 0 .458.03.674.09.216.06.41.151.583.275.172.122.316.278.433.466.117.19.19.409.22.66h-.456a1.282 1.282 0 00-.175-.489 1.15 1.15 0 00-.324-.34 1.455 1.455 0 00-.438-.2 1.925 1.925 0 00-.517-.067c-.24 0-.463.043-.67.132a1.612 1.612 0 00-.543.375 1.72 1.72 0 00-.363.593 2.24 2.24 0 00-.132.793v.069c0 .295.044.558.132.788.087.23.207.426.359.585.152.159.333.282.543.366.21.086.435.128.674.128.193 0 .374-.026.543-.08.17-.054.323-.132.46-.234.137-.103.25-.23.342-.383.09-.153.15-.33.18-.528h.428a1.794 1.794 0 01-.63 1.17c-.17.14-.367.25-.591.33-.225.08-.47.12-.732.12zm4.353-.009c-.368 0-.646-.1-.836-.3-.19-.198-.285-.478-.285-.837v-3.01h-.675v-.394h.675v-1.02h.464v1.02h1.2v.394h-1.2v2.968c0 .273.062.472.184.598.122.124.289.187.499.187a1.743 1.743 0 00.578-.095v.393a1.55 1.55 0 01-.604.096zm1.716-.06v-4.48h.465v4.48h-.465zm.228-5.441a.326.326 0 01-.333-.325c0-.086.032-.16.097-.223a.326.326 0 01.236-.095c.093 0 .171.032.233.095a.31.31 0 01.091.223.319.319 0 01-.324.325zm1.226.96h.508l1.559 4.027 1.55-4.027h.473l-1.725 4.481h-.605l-1.76-4.481zm8.223 1.91c-.023-.545-.17-.945-.442-1.201-.272-.256-.632-.383-1.082-.383a1.65 1.65 0 00-.613.11 1.474 1.474 0 00-.827.814 2.174 2.174 0 00-.162.66h3.126zM83.5 44.5c-.332 0-.632-.055-.897-.163a1.94 1.94 0 01-.683-.463c-.19-.2-.337-.438-.438-.715a2.652 2.652 0 01-.153-.921v-.07c0-.336.052-.644.157-.924.106-.28.25-.522.434-.724.184-.203.404-.36.661-.472.257-.11.54-.167.85-.167.274 0 .534.044.779.133.245.089.458.223.64.403.18.18.323.407.428.681.105.274.158.597.158.968v.163H81.81c.012.603.16 1.066.443 1.39.283.324.699.486 1.247.486.386 0 .701-.076.947-.23.245-.155.408-.39.49-.704h.464c-.1.431-.317.76-.652.988-.337.227-.753.341-1.249.341zm29.637-43.388h.359v3.025h-.35V1.72l-1.185 1.748h-.05l-1.185-1.748v2.417h-.347V1.112h.367l1.195 1.798 1.196-1.798zm-5.817 0h2.36v.333h-1.006v2.692h-.35V1.445h-1.004v-.333zM94.15 18.318h4.156c4.426 0 7.317-2.94 7.317-7.008v-.06c0-4.07-2.89-7.068-7.317-7.068H94.15v14.136zm-3.704 3.326V.856h7.86c6.624 0 11.201 4.484 11.201 10.334v.06c0 5.85-4.577 10.394-11.201 10.394h-7.86zM69.766 11.16h5.42c2.65 0 4.336-1.366 4.336-3.475v-.06c0-2.226-1.626-3.444-4.367-3.444h-5.39v6.979zm-3.704 10.483V.856h9.395c2.65 0 4.727.773 6.082 2.079 1.115 1.129 1.747 2.673 1.747 4.484v.06c0 3.414-2.079 5.464-5.03 6.295l5.693 7.87h-4.367l-5.18-7.246h-4.637v7.246h-3.703zm-18.07-3c4.185 0 7.106-3.296 7.106-7.334v-.06c0-4.039-2.982-7.394-7.167-7.394-4.186 0-7.107 3.296-7.107 7.334v.06c0 4.039 2.982 7.394 7.167 7.394zM47.93 22c-6.474 0-10.991-4.84-10.991-10.69v-.06C36.94 5.4 41.517.5 47.99.5c6.475 0 10.992 4.84 10.992 10.69v.06C58.983 17.1 54.406 22 47.93 22zm-24.822-.059c-3.252 0-5.36-1.485-6.745-3.356l2.44-2.465c1.234 1.544 2.468 2.436 4.245 2.436 1.987 0 3.343-1.308 3.343-4.069V.856h3.794v13.72c0 2.465-.723 4.306-1.958 5.524-1.234 1.217-3.01 1.841-5.119 1.841zM.504 21.644V.856h15.689v3.326H4.208v5.672h10.63v3.326H4.208v8.464H.504z" fill="#FFF" fill-rule="evenodd"/></svg>